<svg xmlns="http://www.w3.org/2000/svg" fill="none" viewBox="0 0 14 14" id="Calculator-2--Streamline-Core.svg" height="14" width="14"><g id="Calculator-2--Streamline-Core.svg"><path id="Union" fill="#8fbffa" fill-rule="evenodd" d="M2.84615 0.5C1.55041 0.5 0.5 1.55041 0.5 2.84615v8.30765C0.5 12.4496 1.55041 13.5 2.84615 13.5h8.30765c1.2958 0 2.3462 -1.0504 2.3462 -2.3462V2.84615C13.5 1.55041 12.4496 0.5 11.1538 0.5H2.84615Z" clip-rule="evenodd" stroke-width="1"></path><path id="Intersect" fill="#2859c5" fill-rule="evenodd" d="M0.5 7 7 7 7 0.5 2.84615 0.5C1.55041 0.5 0.5 1.55041 0.5 2.84615L0.5 7Z" clip-rule="evenodd" stroke-width="1"></path><path id="Intersect_2" fill="#2859c5" fill-rule="evenodd" d="M13.5 7H7v6.5h4.1538c1.2958 0 2.3462 -1.0504 2.3462 -2.3462V7Z" clip-rule="evenodd" stroke-width="1"></path><path id="Union_2" fill="#8fbffa" fill-rule="evenodd" d="M9 8.375c-0.34518 0 -0.625 0.27982 -0.625 0.625s0.27982 0.625 0.625 0.625h2c0.3452 0 0.625 -0.27982 0.625 -0.625s-0.2798 -0.625 -0.625 -0.625H9Zm0 2c-0.34518 0 -0.625 0.2798 -0.625 0.625s0.27982 0.625 0.625 0.625h2c0.3452 0 0.625 -0.2798 0.625 -0.625s-0.2798 -0.625 -0.625 -0.625H9Z" clip-rule="evenodd" stroke-width="1"></path><path id="Union_3" fill="#2859c5" fill-rule="evenodd" d="M3.38188 8.49806c-0.24407 -0.24408 -0.6398 -0.24408 -0.88388 0 -0.24408 0.24408 -0.24408 0.63981 0 0.88388L3.11606 10l-0.61806 0.6181c-0.24408 0.244 -0.24408 0.6398 0 0.8838 0.24408 0.2441 0.63981 0.2441 0.88388 0l0.61806 -0.618 0.61806 0.618c0.24408 0.2441 0.63981 0.2441 0.88388 0 0.24408 -0.244 0.24408 -0.6398 0 -0.8838L4.88382 10l0.61806 -0.61806c0.24408 -0.24407 0.24408 -0.6398 0 -0.88388 -0.24407 -0.24408 -0.6398 -0.24408 -0.88388 0l-0.61806 0.61806 -0.61806 -0.61806Z" clip-rule="evenodd" stroke-width="1"></path><path id="Union_4" fill="#8fbffa" fill-rule="evenodd" d="M4.625 2.75c0 -0.34518 -0.27982 -0.625 -0.625 -0.625s-0.625 0.27982 -0.625 0.625v0.625H2.75c-0.34518 0 -0.625 0.27982 -0.625 0.625s0.27982 0.625 0.625 0.625h0.625v0.625c0 0.34518 0.27982 0.625 0.625 0.625s0.625 -0.27982 0.625 -0.625v-0.625h0.625c0.34518 0 0.625 -0.27982 0.625 -0.625s-0.27982 -0.625 -0.625 -0.625h-0.625V2.75Z" clip-rule="evenodd" stroke-width="1"></path><path id="Vector (Stroke)" fill="#2859c5" fill-rule="evenodd" d="M8.375 4c0 -0.34518 0.27982 -0.625 0.625 -0.625h2c0.3452 0 0.625 0.27982 0.625 0.625s-0.2798 0.625 -0.625 0.625H9c-0.34518 0 -0.625 -0.27982 -0.625 -0.625Z" clip-rule="evenodd" stroke-width="1"></path></g></svg>